<svg width="80" height="80" viewBox="0 0 80 80" fill="none" xmlns="http://www.w3.org/2000/svg">
<path d="M63.4967 16.5033C62.909 14.2329 61.7261 12.1605 60.07 10.5C55.0367 5.46664 46.25 5.46664 41.2167 10.5C39.1306 12.5926 37.797 15.3176 37.4242 18.2487C37.0515 21.1799 37.6607 24.1519 39.1567 26.7L26.7767 39.08C21.76 36.1133 14.8067 36.9166 10.5767 41.14C8.0793 43.6422 6.6767 47.0331 6.6767 50.5683C6.6767 54.1036 8.0793 57.4944 10.5767 59.9966C12.2356 61.6532 14.307 62.8362 16.5767 63.4233C17.17 65.6933 18.3433 67.7633 20.0033 69.4233C21.2371 70.6672 22.7059 71.6534 24.3242 72.3246C25.9425 72.9958 27.678 73.3387 29.43 73.3333C31.1816 73.3379 32.9166 72.9949 34.5347 72.3243C36.1528 71.6538 37.6218 70.6688 38.8567 69.4266C40.9424 67.3345 42.2757 64.6098 42.6478 61.6791C43.02 58.7484 42.41 55.777 40.9133 53.23L53.2933 40.85C58.3167 43.82 65.27 43.0166 69.4967 38.7866C71.9938 36.285 73.3964 32.8947 73.3964 29.36C73.3964 25.8253 71.9938 22.435 69.4967 19.9333C67.8386 18.2751 65.7669 17.0908 63.4967 16.5033V16.5033ZM64.7867 34.0733C62.2667 36.59 57.8767 36.5933 55.3567 34.0733L53 31.7166L31.79 52.93L34.1467 55.2866C35.394 56.5381 36.0944 58.233 36.0944 60C36.0944 61.7669 35.394 63.4618 34.1467 64.7133C31.6233 67.2366 27.2333 67.23 24.7167 64.7133C23.5561 63.5486 22.8766 61.9896 22.8133 60.3466L22.6567 57.3466L19.6567 57.19C18.0143 57.1238 16.4564 56.4447 15.29 55.2866C14.0416 54.035 13.3406 52.3394 13.3406 50.5716C13.3406 48.8039 14.0416 47.1083 15.29 45.8566C16.5467 44.6 18.22 43.9066 20 43.9066C21.78 43.9066 23.4533 44.6 24.7133 45.8566L27.07 48.2133L48.2833 27.0033L45.9267 24.6466C44.6783 23.395 43.9772 21.6994 43.9772 19.9316C43.9772 18.1639 44.6783 16.4683 45.9267 15.2166C48.4467 12.7033 52.8333 12.7033 55.3533 15.2166C56.4967 16.36 57.1733 17.9133 57.26 19.59L57.42 22.58L60.41 22.74C62.0867 22.8266 63.64 23.5033 64.7833 24.6466C66.04 25.9066 66.7333 27.58 66.7333 29.36C66.7333 31.14 66.0433 32.8133 64.7867 34.0733V34.0733Z" fill="white"/>
</svg>
