<svg width="80" height="80" viewBox="0 0 80 80" fill="none" xmlns="http://www.w3.org/2000/svg">
<path d="M13.3333 20H13.5556C14.5833 14.2953 19.0695 10 24.4445 10C26.4028 10 28.3472 10.6406 30.125 11.7578C31.9722 7.74219 35.7083 5 40 5C44.2917 5 48.0278 7.74375 49.875 11.7578C51.5278 10.6406 53.4722 10 55.5556 10C60.9306 10 65.2917 14.2953 66.4445 20H66.6667C71.5695 20 75.5556 24.4844 75.5556 30C75.5556 31.8281 75.125 33.5313 74.3611 35H5.63334C4.87778 33.5313 4.44445 31.8281 4.44445 30C4.44445 24.4844 8.42362 20 13.3333 20ZM2.22223 44.2812C2.22223 41.9219 3.92778 40 6.03195 40H73.9722C76.0695 40 77.7778 41.9219 77.7778 44.2812C77.7778 55.6719 71.1945 65.3437 62.0695 68.7187C62.1667 69.125 62.2222 69.5625 62.2222 70C62.2222 72.7656 60.2361 75 57.7778 75H22.2222C19.7639 75 17.7778 72.7656 17.7778 70C17.7778 69.5625 17.8333 69.125 17.9306 68.7187C8.80556 65.3437 2.22223 55.6719 2.22223 44.2812Z" fill="white"/>
</svg>
