<svg width="83" height="83" viewBox="0 0 83 83" fill="none" xmlns="http://www.w3.org/2000/svg">
<path d="M33.7187 45.3906C33.7187 46.1601 33.4906 46.9123 33.0631 47.5521C32.6356 48.192 32.0279 48.6906 31.317 48.9851C30.6061 49.2796 29.8238 49.3566 29.0691 49.2065C28.3144 49.0564 27.6211 48.6858 27.077 48.1417C26.5329 47.5976 26.1624 46.9044 26.0123 46.1497C25.8621 45.3949 25.9392 44.6127 26.2337 43.9018C26.5281 43.1908 27.0268 42.5832 27.6666 42.1557C28.3064 41.7282 29.0586 41.5 29.8281 41.5C30.86 41.5 31.8496 41.9099 32.5792 42.6395C33.3088 43.3692 33.7187 44.3588 33.7187 45.3906ZM53.1719 41.5C52.4024 41.5 51.6502 41.7282 51.0104 42.1557C50.3705 42.5832 49.8719 43.1908 49.5774 43.9018C49.2829 44.6127 49.2059 45.3949 49.356 46.1497C49.5061 46.9044 49.8767 47.5976 50.4208 48.1417C50.9649 48.6858 51.6581 49.0564 52.4128 49.2065C53.1676 49.3566 53.9498 49.2796 54.6607 48.9851C55.3717 48.6906 55.9793 48.192 56.4068 47.5521C56.8343 46.9123 57.0625 46.1601 57.0625 45.3906C57.0625 44.3588 56.6526 43.3692 55.923 42.6395C55.1933 41.9099 54.2037 41.5 53.1719 41.5ZM75.4457 46.6875C74.7625 46.9928 74.0217 47.1476 73.2734 47.1414C72.0894 47.1438 70.942 46.7308 70.0312 45.9742V59.6563C70.0312 63.0958 68.6649 66.3944 66.2328 68.8265C63.8007 71.2587 60.502 72.625 57.0625 72.625H25.9375C22.498 72.625 19.1993 71.2587 16.7672 68.8265C14.3351 66.3944 12.9688 63.0958 12.9688 59.6563V45.9742C12.058 46.7308 10.9106 47.1438 9.72656 47.1414C8.97831 47.1476 8.23748 46.9928 7.5543 46.6875C6.48549 46.2154 5.61017 45.3922 5.07353 44.3543C4.5369 43.3164 4.37119 42.1263 4.60391 40.9813L9.92109 12.6121C10.0548 11.9186 10.3278 11.2595 10.7236 10.6746C11.1194 10.0896 11.6299 9.59114 12.224 9.20922C12.818 8.82731 13.4835 8.56992 14.1799 8.45265C14.8764 8.33538 15.5894 8.36066 16.2758 8.52696L34.043 12.9688H48.957L66.7242 8.52696C67.4106 8.36066 68.1236 8.33538 68.8201 8.45265C69.5165 8.56992 70.1819 8.82731 70.776 9.20922C71.3701 9.59114 71.8805 10.0896 72.2764 10.6746C72.6722 11.2595 72.9452 11.9186 73.0789 12.6121L78.3961 40.9813C78.6288 42.1263 78.4631 43.3164 77.9265 44.3543C77.3898 45.3922 76.5145 46.2154 75.4457 46.6875V46.6875ZM29.2121 17.1188L15.0113 13.5524L9.69414 41.9539L29.2121 17.1188ZM64.8437 59.6563V39.5547L48.0168 18.1563H34.9832L18.1562 39.5547V59.6563C18.1648 61.7173 18.9873 63.6916 20.4448 65.149C21.9022 66.6064 23.8764 67.429 25.9375 67.4375H38.9062V63.3199L34.4645 58.9106C34.0508 58.4066 33.8395 57.7668 33.8715 57.1156C33.9034 56.4645 34.1765 55.8485 34.6375 55.3875C35.0985 54.9265 35.7145 54.6534 36.3656 54.6215C37.0168 54.5895 37.6566 54.8009 38.1605 55.2145L41.5 58.5863L44.8394 55.2145C45.3434 54.8009 45.9832 54.5895 46.6344 54.6215C47.2855 54.6534 47.9015 54.9265 48.3625 55.3875C48.8235 55.8485 49.0966 56.4645 49.1285 57.1156C49.1605 57.7668 48.9491 58.4066 48.5355 58.9106L44.0937 63.3199V67.4375H57.0625C59.1236 67.429 61.0978 66.6064 62.5552 65.149C64.0127 63.6916 64.8352 61.7173 64.8437 59.6563V59.6563ZM73.3058 41.9539L67.9887 13.5524L53.7879 17.1188L73.3058 41.9539Z" fill="white"/>
</svg>
