<svg width="105" height="27" viewBox="0 0 105 27" fill="none" xmlns="http://www.w3.org/2000/svg">
<path fill-rule="evenodd" clip-rule="evenodd" d="M9.25631 3.96498L0.946592 0L1.73471 9.31357C0.62816 10.9632 0 12.8517 0 14.8584C0 21.3094 6.49187 26.5389 14.5 26.5389C22.5081 26.5389 29 21.3094 29 14.8584C29 13.0225 28.4742 11.2855 27.5373 9.73984L28.6455 0.05712L19.7718 3.9738C18.1379 3.45987 16.3598 3.17781 14.5 3.17781C12.6508 3.17781 10.8825 3.45665 9.25631 3.96498ZM14.5 24.525C21.8243 24.525 26.9861 19.8123 26.9861 14.8584C26.9861 9.90439 21.8243 5.1917 14.5 5.1917C7.17568 5.1917 2.01389 9.90439 2.01389 14.8584C2.01389 19.8123 7.17568 24.525 14.5 24.525Z" fill="#EBBA40"/>
<path d="M46.176 7.8C47.168 7.8 48.0267 7.96533 48.752 8.296C49.488 8.62667 50.0533 9.096 50.448 9.704C50.8427 10.312 51.04 11.032 51.04 11.864C51.04 12.6853 50.8427 13.4053 50.448 14.024C50.0533 14.632 49.488 15.1013 48.752 15.432C48.0267 15.752 47.168 15.912 46.176 15.912H43.92V19H41.328V7.8H46.176ZM46.032 13.8C46.8107 13.8 47.4027 13.6347 47.808 13.304C48.2133 12.9627 48.416 12.4827 48.416 11.864C48.416 11.2347 48.2133 10.7547 47.808 10.424C47.4027 10.0827 46.8107 9.912 46.032 9.912H43.92V13.8H46.032ZM61.1309 14.728C61.1309 14.76 61.1149 14.984 61.0829 15.4H54.5709C54.6882 15.9333 54.9655 16.3547 55.4029 16.664C55.8402 16.9733 56.3842 17.128 57.0349 17.128C57.4829 17.128 57.8775 17.064 58.2189 16.936C58.5709 16.7973 58.8962 16.584 59.1949 16.296L60.5229 17.736C59.7122 18.664 58.5282 19.128 56.9709 19.128C56.0002 19.128 55.1415 18.9413 54.3949 18.568C53.6482 18.184 53.0722 17.656 52.6669 16.984C52.2615 16.312 52.0589 15.5493 52.0589 14.696C52.0589 13.8533 52.2562 13.096 52.6509 12.424C53.0562 11.7413 53.6055 11.2133 54.2989 10.84C55.0029 10.456 55.7869 10.264 56.6509 10.264C57.4935 10.264 58.2562 10.4453 58.9389 10.808C59.6215 11.1707 60.1549 11.6933 60.5389 12.376C60.9335 13.048 61.1309 13.832 61.1309 14.728ZM56.6669 12.152C56.1015 12.152 55.6269 12.312 55.2429 12.632C54.8589 12.952 54.6242 13.3893 54.5389 13.944H58.7789C58.6935 13.4 58.4589 12.968 58.0749 12.648C57.6909 12.3173 57.2215 12.152 56.6669 12.152ZM68.3446 18.584C68.0993 18.7653 67.7953 18.904 67.4326 19C67.0806 19.0853 66.7073 19.128 66.3126 19.128C65.2886 19.128 64.494 18.8667 63.9286 18.344C63.374 17.8213 63.0966 17.0533 63.0966 16.04V12.504H61.7686V10.584H63.0966V8.488H65.5926V10.584H67.7366V12.504H65.5926V16.008C65.5926 16.3707 65.6833 16.6533 65.8646 16.856C66.0566 17.048 66.3233 17.144 66.6646 17.144C67.0593 17.144 67.3953 17.0373 67.6726 16.824L68.3446 18.584ZM73.6401 19.128C72.7228 19.128 71.8961 18.9413 71.1601 18.568C70.4348 18.184 69.8641 17.656 69.4481 16.984C69.0428 16.312 68.8401 15.5493 68.8401 14.696C68.8401 13.8427 69.0428 13.08 69.4481 12.408C69.8641 11.736 70.4348 11.2133 71.1601 10.84C71.8961 10.456 72.7228 10.264 73.6401 10.264C74.5468 10.264 75.3361 10.456 76.0081 10.84C76.6908 11.2133 77.1868 11.752 77.4961 12.456L75.5601 13.496C75.1121 12.7067 74.4668 12.312 73.6241 12.312C72.9735 12.312 72.4348 12.5253 72.0081 12.952C71.5815 13.3787 71.3681 13.96 71.3681 14.696C71.3681 15.432 71.5815 16.0133 72.0081 16.44C72.4348 16.8667 72.9735 17.08 73.6241 17.08C74.4775 17.08 75.1228 16.6853 75.5601 15.896L77.4961 16.952C77.1868 17.6347 76.6908 18.168 76.0081 18.552C75.3361 18.936 74.5468 19.128 73.6401 19.128ZM82.4053 10.264C83.7386 10.264 84.7626 10.584 85.4773 11.224C86.1919 11.8533 86.5493 12.808 86.5493 14.088V19H84.2133V17.928C83.7439 18.728 82.8693 19.128 81.5893 19.128C80.9279 19.128 80.3519 19.016 79.8613 18.792C79.3813 18.568 79.0133 18.2587 78.7573 17.864C78.5013 17.4693 78.3733 17.0213 78.3733 16.52C78.3733 15.72 78.6719 15.0907 79.2693 14.632C79.8773 14.1733 80.8106 13.944 82.0693 13.944H84.0533C84.0533 13.4 83.8879 12.984 83.5573 12.696C83.2266 12.3973 82.7306 12.248 82.0693 12.248C81.6106 12.248 81.1573 12.3227 80.7093 12.472C80.2719 12.6107 79.8986 12.8027 79.5893 13.048L78.6933 11.304C79.1626 10.9733 79.7226 10.7173 80.3733 10.536C81.0346 10.3547 81.7119 10.264 82.4053 10.264ZM82.2133 17.448C82.6399 17.448 83.0186 17.352 83.3493 17.16C83.6799 16.9573 83.9146 16.664 84.0533 16.28V15.4H82.3413C81.3173 15.4 80.8053 15.736 80.8053 16.408C80.8053 16.728 80.9279 16.984 81.1733 17.176C81.4293 17.3573 81.7759 17.448 82.2133 17.448ZM91.1923 11.528C91.4909 11.112 91.8909 10.7973 92.3923 10.584C92.9043 10.3707 93.4909 10.264 94.1523 10.264V12.568C93.8749 12.5467 93.6883 12.536 93.5923 12.536C92.8776 12.536 92.3176 12.7387 91.9123 13.144C91.5069 13.5387 91.3043 14.136 91.3043 14.936V19H88.8083V10.392H91.1923V11.528ZM103.99 14.728C103.99 14.76 103.974 14.984 103.942 15.4H97.4303C97.5476 15.9333 97.8249 16.3547 98.2623 16.664C98.6996 16.9733 99.2436 17.128 99.8943 17.128C100.342 17.128 100.737 17.064 101.078 16.936C101.43 16.7973 101.756 16.584 102.054 16.296L103.382 17.736C102.572 18.664 101.388 19.128 99.8303 19.128C98.8596 19.128 98.0009 18.9413 97.2543 18.568C96.5076 18.184 95.9316 17.656 95.5263 16.984C95.1209 16.312 94.9183 15.5493 94.9183 14.696C94.9183 13.8533 95.1156 13.096 95.5103 12.424C95.9156 11.7413 96.4649 11.2133 97.1583 10.84C97.8623 10.456 98.6463 10.264 99.5103 10.264C100.353 10.264 101.116 10.4453 101.798 10.808C102.481 11.1707 103.014 11.6933 103.398 12.376C103.793 13.048 103.99 13.832 103.99 14.728ZM99.5263 12.152C98.9609 12.152 98.4863 12.312 98.1023 12.632C97.7183 12.952 97.4836 13.3893 97.3983 13.944H101.638C101.553 13.4 101.318 12.968 100.934 12.648C100.55 12.3173 100.081 12.152 99.5263 12.152Z" fill="#585D5E"/>
</svg>
