<svg width="80" height="80" viewBox="0 0 80 80" fill="none" xmlns="http://www.w3.org/2000/svg">
<path d="M69.1875 56.5344C67.8125 52.6125 64.6079 50.625 61.5141 48.7031C58.8219 47.0297 56.2797 45.4484 54.6172 42.6094C50.0344 34.7453 47.5172 30 40.0094 30C32.5016 30 29.9766 34.7469 25.3828 42.6078C23.7188 45.4531 21.1641 47.0375 18.4688 48.7141C15.375 50.6375 12.1766 52.6203 10.7969 56.5344C10.2599 57.9458 9.9897 59.4446 10 60.9547C10 67.3203 15.0703 72.5 20.6875 72.5C26.3047 72.5 33.7047 69.6672 40.025 69.6672C46.3453 69.6672 53.6422 72.5 59.3297 72.5C65.0172 72.5 70 67.3203 70 60.9547C70.0045 59.4437 69.729 57.945 69.1875 56.5344V56.5344Z" fill="white"/>
<path d="M11.25 45C16.0825 45 20 39.9632 20 33.75C20 27.5368 16.0825 22.5 11.25 22.5C6.41751 22.5 2.5 27.5368 2.5 33.75C2.5 39.9632 6.41751 45 11.25 45Z" fill="white"/>
<path d="M28.75 30C33.5825 30 37.5 24.9632 37.5 18.75C37.5 12.5368 33.5825 7.5 28.75 7.5C23.9175 7.5 20 12.5368 20 18.75C20 24.9632 23.9175 30 28.75 30Z" fill="white"/>
<path d="M51.25 30C56.0825 30 60 24.9632 60 18.75C60 12.5368 56.0825 7.5 51.25 7.5C46.4175 7.5 42.5 12.5368 42.5 18.75C42.5 24.9632 46.4175 30 51.25 30Z" fill="white"/>
<path d="M68.75 45C73.5825 45 77.5 39.9632 77.5 33.75C77.5 27.5368 73.5825 22.5 68.75 22.5C63.9175 22.5 60 27.5368 60 33.75C60 39.9632 63.9175 45 68.75 45Z" fill="white"/>
</svg>
